<?xml version="1.0" encoding="UTF-8" ?>
<!DOCTYPE svg PUBLIC "-//W3C//DTD SVG 1.1//EN" "http://www.w3.org/Graphics/SVG/1.1/DTD/svg11.dtd">
<svg width="1688pt" height="564pt" viewBox="0 0 1688 564" version="1.1" xmlns="http://www.w3.org/2000/svg">
<g id="#ffffffff">
</g>
<g id="#a54686ff">
<path fill="#a54686" opacity="1.00" d=" M 248.52 19.73 C 257.02 19.36 265.53 19.53 274.03 19.50 C 657.02 19.50 1040.01 19.49 1422.99 19.50 C 1431.31 19.53 1439.64 19.36 1447.96 19.78 C 1490.91 21.80 1533.21 35.99 1568.69 60.28 C 1598.18 80.35 1623.13 107.10 1640.94 138.02 C 1661.17 172.76 1672.12 212.81 1672.47 253.01 C 1672.96 295.09 1661.87 337.26 1640.61 373.59 C 1623.35 403.18 1599.71 429.06 1571.61 448.67 C 1537.43 472.76 1496.72 487.58 1455.00 490.73 C 1444.02 491.71 1432.99 491.45 1421.98 491.49 C 1040.66 491.49 659.33 491.49 278.00 491.49 C 263.00 491.43 247.94 491.88 233.00 490.09 C 186.62 485.16 142.04 465.80 106.47 435.69 C 81.89 414.73 61.38 388.93 47.06 359.95 C 29.36 324.54 20.93 284.58 22.75 245.04 C 24.51 203.39 37.74 162.32 60.53 127.43 C 77.75 101.02 100.18 77.98 126.28 60.28 C 162.19 35.72 205.05 21.47 248.52 19.73 M 254.42 59.55 C 200.12 60.34 146.86 85.48 111.36 126.50 C 87.21 153.77 70.88 187.94 65.10 223.93 C 58.88 261.42 63.92 300.74 79.65 335.36 C 93.51 366.17 115.45 393.31 142.69 413.29 C 169.85 433.39 202.29 446.33 235.88 450.15 C 245.51 451.38 255.24 451.53 264.94 451.48 C 650.96 451.49 1036.97 451.48 1422.99 451.49 C 1433.01 451.45 1443.06 451.71 1453.06 450.74 C 1498.96 447.08 1543.10 426.15 1575.37 393.38 C 1600.94 367.74 1619.29 334.90 1627.42 299.59 C 1637.19 258.19 1632.75 213.63 1615.05 174.95 C 1600.17 142.23 1576.20 113.67 1546.42 93.51 C 1514.18 71.30 1475.10 59.31 1435.96 59.50 C 1042.12 59.54 648.27 59.43 254.42 59.55 Z" />
<path fill="#a54686" opacity="1.00" d=" M 706.04 115.04 C 714.90 104.56 729.53 99.35 743.03 101.89 C 751.28 103.13 758.87 107.45 764.75 113.27 C 770.27 118.83 773.35 126.14 776.80 133.04 C 794.03 166.98 811.01 201.07 828.32 234.97 C 828.61 234.88 829.18 234.69 829.47 234.59 C 831.83 230.61 833.69 226.35 836.20 222.46 C 835.42 226.48 834.05 230.47 831.31 233.61 C 827.96 237.08 825.37 241.13 823.46 245.55 C 809.80 270.86 796.45 296.37 782.58 321.55 C 766.67 290.30 751.09 258.88 735.12 227.66 C 718.35 259.06 701.65 290.49 684.73 321.81 C 717.17 322.08 749.62 321.82 782.07 321.93 C 782.42 321.93 783.13 321.93 783.48 321.92 C 781.76 323.88 780.23 326.00 779.09 328.35 C 776.37 333.78 773.09 338.91 770.42 344.36 C 765.40 354.42 765.26 366.54 769.10 377.01 C 774.85 391.14 789.30 402.35 805.01 401.12 C 878.34 401.38 951.65 401.21 1024.98 401.21 C 1030.19 400.99 1035.42 400.96 1040.62 401.56 L 1039.47 401.71 C 1008.01 402.20 976.52 401.76 945.05 401.95 C 838.39 401.91 731.71 401.91 625.03 401.92 C 620.68 401.91 616.32 401.94 612.02 401.23 C 599.71 399.41 588.40 391.40 582.84 380.22 C 578.30 371.57 577.12 361.20 579.69 351.76 C 581.00 346.30 583.99 341.49 586.58 336.57 C 623.95 266.61 661.37 196.68 698.74 126.72 C 700.78 122.60 702.98 118.51 706.04 115.04 Z" />
</g>
<g id="#fefefeff">
</g>
<g id="#30a7d2ff">
<path fill="#30a7d2" opacity="1.00" d=" M 514.83 99.45 C 518.47 98.49 522.26 98.84 525.98 98.81 C 541.92 98.79 557.85 98.85 573.78 98.78 C 573.37 102.47 572.40 106.05 571.41 109.62 C 569.48 117.64 567.81 125.74 565.38 133.63 C 565.34 122.29 570.53 111.89 571.64 100.70 C 561.11 100.26 550.57 100.61 540.04 100.50 C 532.10 100.63 524.12 100.00 516.24 101.16 C 515.50 104.85 514.65 108.51 513.74 112.15 C 513.51 111.32 513.05 109.66 512.82 108.84 C 513.73 105.76 514.46 102.63 514.83 99.45 Z" />
<path fill="#30a7d2" opacity="1.00" d=" M 216.43 181.68 C 226.08 177.13 235.89 172.84 245.82 168.95 L 247.20 169.53 C 242.35 172.14 237.04 173.73 232.15 176.26 C 227.12 178.56 222.13 181.63 216.43 181.68 Z" />
<path fill="#30a7d2" opacity="1.00" d=" M 488.55 210.10 C 490.02 204.90 490.73 199.51 492.61 194.43 C 493.39 199.86 490.54 204.77 489.95 210.04 C 489.30 216.19 486.66 221.86 485.70 227.95 C 485.09 230.65 484.92 233.82 482.64 235.74 C 484.20 227.10 486.58 218.64 488.55 210.10 Z" />
<path fill="#30a7d2" opacity="1.00" d=" M 482.46 236.41 C 482.71 237.57 482.94 238.73 483.14 239.91 C 483.92 243.48 480.99 246.44 480.42 249.85 C 478.44 258.26 476.37 266.66 474.29 275.06 C 473.87 276.76 473.01 278.30 472.20 279.84 C 473.25 272.32 475.58 265.06 477.16 257.64 C 479.00 250.58 480.25 243.37 482.46 236.41 Z" />
<path fill="#30a7d2" opacity="1.00" d=" M 330.54 379.28 C 335.19 379.49 340.09 380.22 343.42 383.84 C 342.76 383.84 341.45 383.85 340.79 383.86 C 337.18 382.81 333.89 380.93 330.54 379.28 Z" />
</g>
<g id="#00adefff">
<path fill="#00adef" opacity="1.00" d=" M 1310.40 100.14 C 1385.45 132.93 1460.69 165.32 1535.80 198.01 C 1550.56 204.21 1565.09 211.02 1579.98 216.88 L 1579.45 217.07 C 1576.27 217.84 1580.26 219.85 1581.68 218.63 L 1582.88 218.28 C 1585.05 219.29 1587.22 220.34 1589.35 221.50 C 1589.16 243.70 1589.33 265.90 1589.26 288.10 C 1496.25 328.35 1403.35 368.81 1310.31 408.98 C 1310.19 382.92 1310.04 356.85 1310.39 330.80 C 1330.58 323.32 1350.50 315.11 1370.54 307.23 C 1414.91 289.97 1459.02 272.05 1503.45 254.95 C 1503.58 254.64 1503.85 254.03 1503.98 253.72 C 1462.73 237.73 1421.40 221.97 1380.12 206.05 C 1356.85 197.14 1333.65 188.02 1310.32 179.29 C 1310.20 152.91 1310.03 126.51 1310.40 100.14 Z" />
<path fill="#00adef" opacity="1.00" d=" M 516.24 101.16 C 524.12 100.00 532.10 100.63 540.04 100.50 C 550.57 100.61 561.11 100.26 571.64 100.70 C 570.53 111.89 565.34 122.29 565.38 133.63 C 560.09 157.03 554.13 180.31 548.57 203.65 C 547.35 207.71 546.26 211.81 545.58 216.00 C 534.96 260.70 523.84 305.28 513.26 349.99 C 508.90 367.14 505.12 384.42 500.60 401.52 C 481.42 401.41 462.25 401.61 443.08 401.42 C 445.71 387.40 449.68 373.65 452.82 359.73 C 458.77 334.54 464.91 309.39 470.87 284.19 C 471.24 282.72 471.51 281.20 472.20 279.84 C 473.01 278.30 473.87 276.76 474.29 275.06 C 476.37 266.66 478.44 258.26 480.42 249.85 C 480.99 246.44 483.92 243.48 483.14 239.91 C 482.94 238.73 482.71 237.57 482.46 236.41 C 482.44 236.31 482.40 236.11 482.38 236.01 L 482.64 235.74 C 484.92 233.82 485.09 230.65 485.70 227.95 C 486.66 221.86 489.30 216.19 489.95 210.04 C 490.54 204.77 493.39 199.86 492.61 194.43 C 498.99 165.85 506.43 137.44 512.82 108.84 C 513.05 109.66 513.51 111.32 513.74 112.15 C 514.65 108.51 515.50 104.85 516.24 101.16 Z" />
<path fill="#00adef" opacity="1.00" d=" M 376.33 112.37 C 384.68 108.54 393.39 105.44 401.47 101.07 C 402.57 105.31 402.08 109.69 402.13 114.01 C 402.14 131.67 402.14 149.34 402.13 167.00 C 402.10 171.52 402.38 176.05 401.74 180.54 C 347.58 200.81 293.72 221.91 239.62 242.36 C 228.97 246.35 218.42 250.57 207.78 254.59 C 208.79 255.16 209.85 255.64 210.91 256.14 C 267.99 278.81 325.11 301.43 382.17 324.17 C 388.69 326.63 395.09 329.40 401.67 331.70 C 402.02 334.12 402.23 336.57 402.17 339.03 C 401.96 362.71 402.43 386.41 401.94 410.08 C 392.99 407.06 384.60 402.63 375.83 399.15 C 364.19 393.97 352.46 388.98 340.79 383.86 C 341.45 383.85 342.76 383.84 343.42 383.84 C 340.09 380.22 335.19 379.49 330.54 379.28 C 261.38 349.63 192.45 319.26 123.32 289.47 C 122.49 285.02 122.86 280.48 122.80 275.98 C 122.80 261.99 122.80 248.01 122.80 234.02 C 122.84 229.93 122.49 225.79 123.35 221.75 C 154.29 208.58 185.16 195.20 215.97 181.71 L 216.43 181.68 C 222.13 181.63 227.12 178.56 232.15 176.26 C 237.04 173.73 242.35 172.14 247.20 169.53 L 245.82 168.95 C 289.24 149.91 332.84 131.26 376.33 112.37 M 241.54 339.50 C 242.89 342.03 245.92 342.30 248.39 342.98 C 246.59 341.00 244.25 339.65 241.54 339.50 Z" />
</g>
<g id="#c656a0ff">
<path fill="#c656a0" opacity="1.00" d=" M 897.00 113.06 C 903.39 107.40 911.48 103.45 920.05 102.67 C 931.25 101.41 942.90 105.20 951.16 112.90 C 962.16 122.66 966.87 138.86 962.79 152.99 C 961.14 159.32 957.43 164.78 954.56 170.57 C 928.91 218.24 903.34 265.95 877.73 313.65 C 876.26 316.47 874.53 319.18 873.48 322.20 C 924.28 321.81 975.10 322.38 1025.90 321.91 C 1033.70 322.21 1041.79 321.68 1049.15 324.81 C 1060.08 328.63 1068.53 337.88 1072.52 348.61 C 1075.84 357.02 1074.80 366.20 1073.55 374.91 C 1069.96 382.05 1065.62 389.04 1059.31 394.10 C 1053.60 397.67 1047.47 401.03 1040.62 401.56 C 1035.42 400.96 1030.19 400.99 1024.98 401.21 C 951.65 401.21 878.34 401.38 805.01 401.12 C 789.30 402.35 774.85 391.14 769.10 377.01 C 765.26 366.54 765.40 354.42 770.42 344.36 C 773.09 338.91 776.37 333.78 779.09 328.35 C 780.23 326.00 781.76 323.88 783.48 321.92 C 783.13 321.93 782.42 321.93 782.07 321.93 L 782.58 321.55 C 796.45 296.37 809.80 270.86 823.46 245.55 C 825.37 241.13 827.96 237.08 831.31 233.61 C 834.05 230.47 835.42 226.48 836.20 222.46 C 840.48 213.22 845.77 204.43 850.42 195.35 C 860.92 175.82 871.41 156.28 881.90 136.75 C 886.53 128.63 890.02 119.57 897.00 113.06 Z" />
</g>
<g id="#d27fb5ff">
<path fill="#d27fb5" opacity="1.00" d=" M 1063.77 108.88 C 1079.09 104.45 1095.16 103.75 1111.01 103.25 C 1153.50 103.35 1195.99 103.01 1238.47 103.42 C 1238.29 202.93 1238.44 302.44 1238.40 401.95 C 1213.49 402.11 1188.57 402.13 1163.67 401.93 C 1163.84 365.36 1163.65 328.79 1163.77 292.22 C 1154.71 292.38 1145.65 292.09 1136.60 292.38 C 1118.32 317.09 1099.45 341.37 1080.96 365.92 C 1078.55 368.97 1076.45 372.29 1073.55 374.91 C 1074.80 366.20 1075.84 357.02 1072.52 348.61 C 1068.53 337.88 1060.08 328.63 1049.15 324.81 C 1041.79 321.68 1033.70 322.21 1025.90 321.91 C 1028.34 317.51 1031.96 313.95 1034.98 309.96 C 1043.99 298.14 1053.55 286.76 1062.53 274.92 C 1052.64 269.72 1042.99 263.84 1034.91 256.04 C 1026.04 247.67 1017.90 238.10 1013.33 226.65 C 1006.48 210.10 1004.82 191.78 1006.41 174.05 C 1007.70 161.18 1011.99 148.42 1020.11 138.22 C 1030.87 123.91 1046.71 113.94 1063.77 108.88 M 1094.75 166.71 C 1086.76 172.42 1083.33 182.53 1083.00 192.01 C 1082.77 200.62 1083.42 209.64 1087.55 217.37 C 1093.16 227.76 1104.05 234.69 1115.58 236.60 C 1131.41 239.56 1147.56 238.06 1163.55 238.60 C 1164.02 211.77 1163.55 184.93 1163.78 158.10 C 1150.84 157.92 1137.91 158.04 1124.98 158.46 C 1114.54 158.93 1103.39 160.33 1094.75 166.71 Z" />
</g>
<g id="#a2e7f5ff">
<path fill="#a2e7f5" opacity="1.00" d=" M 545.58 216.00 C 546.26 211.81 547.35 207.71 548.57 203.65 C 548.66 207.95 548.31 212.47 545.58 216.00 Z" />
</g>
<g id="#22a0ceff">
<path fill="#22a0ce" opacity="1.00" d=" M 1581.68 218.63 C 1580.26 219.85 1576.27 217.84 1579.45 217.07 C 1580.81 216.97 1581.55 217.49 1581.68 218.63 Z" />
</g>
<g id="#25a0d7ff">
<path fill="#25a0d7" opacity="1.00" d=" M 241.54 339.50 C 244.25 339.65 246.59 341.00 248.39 342.98 C 245.92 342.30 242.89 342.03 241.54 339.50 Z" />
</g>
<g id="#d380b4ff">
<path fill="#d380b4" opacity="1.00" d=" M 1040.62 401.56 C 1047.47 401.03 1053.60 397.67 1059.31 394.10 C 1057.63 396.80 1055.68 399.31 1053.78 401.86 C 1049.01 402.10 1044.21 402.32 1039.47 401.71 L 1040.62 401.56 Z" />
</g>
</svg>
